<svg xmlns="http://www.w3.org/2000/svg" width="1174" height="640" viewBox="0 0 1174 640">
<g>
<path d="M 576.68 518.55 C574.58,517.80 571.88,516.37 570.68,515.38 C564.66,510.37 562.00,507.44 562.00,505.80 C562.00,501.81 558.47,500.00 550.69,500.00 C544.00,500.00 543.16,499.77 540.82,497.25 C536.30,492.40 536.40,486.42 541.06,481.44 C542.97,479.40 542.97,479.35 540.50,476.00 C536.73,470.89 536.98,464.11 541.10,459.90 L 544.20 456.73 L 541.35 454.46 C538.82,452.44 538.50,451.56 538.50,446.50 C538.50,441.38 538.80,440.57 541.50,438.41 C543.15,437.09 545.26,436.01 546.19,436.00 C549.64,435.99 548.92,434.06 544.77,432.17 C540.14,430.06 535.31,425.93 532.56,421.74 C531.49,420.10 530.30,414.79 529.44,407.89 C527.89,395.30 525.45,387.16 520.72,378.81 C517.35,372.84 507.07,357.71 499.47,347.50 C497.01,344.20 494.69,340.83 494.32,340.00 C493.94,339.17 492.15,336.32 490.33,333.66 C484.50,325.11 477.12,308.78 474.44,298.50 C470.90,284.90 469.99,263.14 472.45,250.89 C477.85,223.98 489.56,203.79 510.18,185.81 C522.73,174.87 528.59,171.99 531.80,175.20 C534.47,177.87 533.11,180.85 527.25,185.16 C513.24,195.45 499.01,212.08 491.55,226.88 C480.90,248.00 478.89,278.09 486.51,302.22 C489.75,312.48 496.97,326.29 503.84,335.41 C505.96,338.21 509.67,343.42 512.09,346.99 C514.52,350.57 517.34,354.39 518.36,355.49 C520.22,357.51 526.74,367.24 530.93,374.25 C535.07,381.19 538.71,393.94 539.46,404.12 C540.23,414.60 541.85,418.54 546.66,421.70 C548.95,423.20 551.71,423.52 563.24,423.60 C575.92,423.70 577.25,423.89 579.35,425.85 C582.70,429.01 585.00,428.66 585.00,424.99 C585.00,421.16 583.17,419.59 560.00,403.55 C550.81,397.18 541.43,386.29 537.02,376.86 C527.17,355.78 528.15,335.77 540.07,315.00 C542.75,310.33 546.42,304.92 548.24,303.00 C552.65,298.31 561.05,288.22 563.61,284.50 C568.35,277.64 568.50,276.00 568.50,232.00 L 568.50 190.50 L 559.67 190.00 C552.43,189.59 550.58,189.15 549.42,187.56 C547.63,185.11 547.64,182.20 549.44,179.00 C550.22,177.62 551.60,175.06 552.52,173.30 C553.43,171.53 554.82,169.57 555.59,168.92 C556.37,168.28 557.00,167.29 557.00,166.73 C557.00,165.67 567.82,147.04 576.02,134.00 C578.61,129.88 581.87,124.25 583.26,121.50 C589.53,109.10 592.68,109.96 602.41,126.72 C606.31,133.44 613.09,144.91 617.47,152.22 C635.33,181.99 636.07,183.81 631.97,187.53 C630.45,188.90 627.84,189.47 621.53,189.80 C613.88,190.20 613.08,190.44 612.76,192.37 C612.57,193.54 612.61,209.12 612.84,227.00 C613.30,262.64 612.44,274.91 608.65,287.00 C604.45,300.41 599.77,307.96 587.00,321.97 C578.25,331.57 575.59,336.18 573.86,344.75 C572.84,349.79 572.85,352.21 573.87,357.25 C575.93,367.36 578.51,370.77 598.96,390.50 C606.85,398.11 610.18,403.65 612.64,413.23 C615.44,424.19 612.81,433.54 604.25,443.07 C601.77,445.82 600.02,448.35 600.36,448.69 C600.70,449.03 606.78,448.48 613.88,447.48 C628.36,445.43 632.54,446.09 636.10,451.00 C639.39,455.54 639.36,458.11 635.98,463.21 L 632.87 467.91 L 635.43 471.69 C639.26,477.33 638.96,482.36 634.53,486.54 C632.19,488.74 629.65,490.03 626.78,490.46 C616.73,491.98 617.28,491.60 616.80,497.36 C615.99,507.21 606.91,516.57 595.85,518.94 C589.19,520.37 581.33,520.21 576.68,518.55 ZM 594.10 509.85 C598.81,508.25 603.00,505.17 603.00,503.30 C603.00,501.64 603.68,501.62 586.16,503.85 C582.12,504.37 578.35,505.25 577.79,505.81 C574.27,509.33 586.61,512.39 594.10,509.85 ZM 562.86 489.57 C566.51,488.78 574.22,487.60 580.00,486.95 C625.44,481.82 626.17,481.71 626.72,480.28 C627.01,479.53 626.96,478.63 626.61,478.28 C625.56,477.22 616.09,478.01 605.50,480.03 C600.00,481.07 591.45,482.37 586.50,482.90 C574.93,484.15 553.16,486.95 550.25,487.56 C549.01,487.82 548.00,488.70 548.00,489.52 C548.00,491.46 553.98,491.48 562.86,489.57 ZM 569.30 467.60 C577.66,466.29 588.10,464.91 592.50,464.54 C596.90,464.18 605.00,463.01 610.50,461.94 C616.00,460.88 621.96,460.00 623.75,460.00 C625.89,460.00 627.00,459.51 627.00,458.58 C627.00,456.60 625.34,456.26 620.06,457.14 C617.55,457.56 609.65,458.60 602.50,459.46 C595.35,460.32 585.67,461.67 581.00,462.47 C576.33,463.26 567.65,464.40 561.72,465.00 C549.55,466.23 548.00,466.64 548.00,468.61 C548.00,470.56 551.61,470.39 569.30,467.60 ZM 565.00 446.48 C589.08,443.09 596.67,439.95 600.81,431.68 C602.41,428.47 603.00,425.48 603.00,420.61 C603.00,410.47 600.33,406.18 584.05,390.09 C572.63,378.80 569.72,375.32 566.90,369.50 C563.61,362.73 563.50,362.11 563.50,350.50 C563.50,339.12 563.66,338.16 566.62,332.00 C568.60,327.86 572.34,322.77 576.90,318.00 C585.82,308.67 594.12,296.38 596.82,288.50 C602.00,273.41 602.05,272.79 602.02,226.73 C601.99,176.46 601.52,179.01 610.81,178.98 C613.94,178.98 617.10,178.59 617.84,178.12 C619.32,177.18 618.98,176.42 612.83,166.50 C611.12,163.75 607.92,158.12 605.71,154.00 C603.50,149.88 600.39,144.58 598.79,142.24 C597.20,139.90 595.22,136.38 594.40,134.42 C593.42,132.07 592.36,130.98 591.27,131.19 C589.89,131.45 582.57,142.67 575.28,155.68 C574.30,157.43 571.36,162.67 568.75,167.33 C566.14,171.99 564.00,176.25 564.00,176.80 C564.00,178.24 566.58,179.00 571.47,179.00 C574.09,179.00 576.62,179.69 577.93,180.75 L 580.08 182.50 L 579.79 228.50 L 579.50 274.50 L 575.62 283.29 C572.61,290.09 569.89,294.15 563.58,301.29 C549.22,317.53 546.27,322.30 542.47,335.44 C540.41,342.56 540.92,357.96 543.45,364.82 C549.40,380.98 560.33,393.32 578.30,404.18 C590.07,411.29 594.00,416.73 594.00,425.90 C594.00,431.55 592.51,433.84 586.28,437.77 C582.63,440.07 579.85,440.94 574.50,441.42 C561.36,442.62 549.00,445.14 549.00,446.62 C549.00,448.38 551.74,448.35 565.00,446.48 ZM 660.20 472.80 C658.46,471.06 658.73,467.55 660.75,465.74 C661.71,464.88 666.55,462.03 671.50,459.41 C676.45,456.78 682.53,453.38 685.00,451.85 C687.47,450.32 690.85,448.31 692.50,447.38 C697.87,444.37 721.29,424.47 730.17,415.38 C734.94,410.50 741.01,403.57 743.67,399.99 C748.80,393.07 760.00,376.40 760.00,375.67 C760.00,375.44 761.48,372.78 763.29,369.77 C767.52,362.75 777.09,338.27 780.41,326.00 C783.40,314.89 785.60,303.26 786.52,293.66 C787.41,284.42 791.30,280.45 795.43,284.57 C798.26,287.40 797.06,302.05 792.31,322.50 C790.00,332.47 785.22,348.42 783.03,353.50 C778.56,363.85 775.02,371.36 772.50,375.83 C761.59,395.22 746.24,415.15 731.50,429.08 C711.83,447.67 697.95,457.80 676.68,469.09 C667.52,473.95 662.49,475.09 660.20,472.80 ZM 504.54 466.02 C496.18,461.62 480.42,451.32 475.00,446.71 C460.96,434.77 452.76,427.10 447.50,420.96 C434.17,405.40 432.22,402.88 422.53,388.78 C415.46,378.48 405.65,359.76 403.01,351.50 C402.31,349.30 400.87,345.79 399.81,343.69 C396.43,336.97 388.81,308.91 387.47,298.22 C385.98,286.41 395.51,283.80 397.39,295.50 C399.34,307.58 408.01,337.91 411.97,346.50 C414.79,352.64 421.60,366.23 423.86,370.26 C428.45,378.42 437.87,392.99 440.19,395.50 C441.21,396.60 443.90,399.98 446.18,403.00 C451.74,410.37 473.11,432.08 480.13,437.48 C486.72,442.53 502.81,452.89 510.88,457.25 C518.54,461.39 519.00,461.83 519.00,465.09 C519.00,467.94 516.74,470.00 513.61,470.00 C512.78,470.00 508.70,468.21 504.54,466.02 ZM 619.25 432.47 C616.61,431.35 616.00,430.53 616.00,428.08 C616.00,424.59 617.58,423.52 623.86,422.72 C632.37,421.63 634.84,416.86 636.41,398.47 C637.50,385.69 644.99,370.68 659.43,352.34 C669.91,339.04 682.29,319.91 684.91,313.00 C685.64,311.08 687.13,307.48 688.23,305.02 C690.59,299.73 693.96,280.06 693.98,271.44 C694.01,263.58 690.83,246.58 687.50,236.74 C681.83,219.98 670.67,204.11 655.70,191.54 C648.33,185.35 647.36,183.63 649.45,180.43 C651.55,177.23 654.21,177.36 659.40,180.93 C665.74,185.30 680.07,199.89 684.36,206.36 C690.32,215.34 697.95,232.37 700.72,242.87 C702.82,250.81 703.34,255.50 703.73,269.63 L 704.19 286.75 L 700.55 300.09 C696.97,313.19 692.04,324.00 683.40,337.67 C680.55,342.16 666.56,360.61 664.93,362.00 C663.39,363.32 655.91,375.21 652.99,381.00 C648.87,389.15 647.35,394.69 645.51,408.25 C644.70,414.17 643.41,420.24 642.62,421.75 C638.43,429.84 626.25,435.42 619.25,432.47 ZM 484.86 423.10 C483.98,422.77 481.99,420.99 480.45,419.14 C477.79,415.96 477.39,415.82 472.86,416.42 C468.55,417.00 467.93,416.82 466.48,414.61 C465.36,412.89 465.08,411.11 465.55,408.61 C466.15,405.38 465.83,404.68 462.11,400.99 C457.55,396.47 457.22,395.12 459.70,390.93 C461.30,388.23 461.30,387.85 459.70,384.49 C457.87,380.66 457.40,374.00 458.95,374.00 C459.48,374.00 461.06,375.16 462.48,376.57 C465.06,379.15 468.99,379.59 469.71,377.38 C469.92,376.76 468.89,374.84 467.44,373.11 C465.98,371.38 465.05,369.30 465.37,368.49 C466.12,366.51 472.61,366.55 476.43,368.54 C479.99,370.40 481.72,369.87 482.99,366.53 C483.77,364.48 484.62,364.00 487.51,364.00 C490.51,364.00 491.39,364.54 493.11,367.46 C495.44,371.41 497.74,372.44 502.10,371.48 C504.49,370.95 505.69,371.30 507.52,373.02 C509.56,374.93 509.80,375.88 509.32,379.97 C508.78,384.51 508.91,384.83 512.38,387.47 C517.06,391.05 517.10,393.97 512.50,398.57 C510.58,400.49 509.00,402.24 509.00,402.45 C509.00,402.66 510.13,405.08 511.51,407.82 C513.67,412.14 514.03,416.75 512.13,415.76 C506.73,412.97 505.87,412.73 504.87,413.73 C504.10,414.50 504.45,415.69 506.08,417.89 C508.62,421.33 508.58,421.46 504.85,422.35 C502.99,422.80 501.50,422.40 499.85,421.03 L 497.50 419.07 L 499.75 419.03 C501.55,419.01 502.00,418.43 502.00,416.15 C502.00,412.67 505.17,409.55 507.97,410.28 C509.08,410.57 510.27,410.38 510.60,409.84 C511.53,408.34 507.95,405.00 505.41,405.00 C501.11,405.00 498.48,403.22 489.30,394.09 C483.14,387.95 479.72,383.71 478.92,381.22 C476.70,374.21 476.09,373.10 473.51,371.42 C470.79,369.63 468.81,370.21 470.82,372.22 C472.55,373.95 472.26,377.46 470.17,380.04 C468.51,382.09 468.00,382.20 465.00,381.15 C460.87,379.71 460.27,380.24 462.38,383.46 C463.52,385.19 465.30,386.18 468.08,386.63 C471.04,387.10 473.42,388.52 476.91,391.89 C479.54,394.42 484.14,398.75 487.14,401.50 C493.53,407.35 496.52,411.43 497.22,415.25 C497.65,417.58 497.38,418.00 495.48,418.00 C494.22,418.00 492.55,419.04 491.68,420.37 C489.98,422.96 487.35,424.02 484.86,423.10 ZM 489.72 408.35 C490.03,407.40 481.05,397.80 475.59,393.25 C469.58,388.25 471.56,400.46 477.67,406.13 C479.23,407.57 481.17,409.01 482.00,409.32 C484.39,410.22 489.31,409.61 489.72,408.35 ZM 500.43 398.43 C504.18,394.68 500.76,384.12 494.44,379.95 C488.95,376.33 479.29,378.16 481.67,382.36 C482.49,383.81 488.69,390.47 491.20,392.60 C491.92,393.21 493.74,395.12 495.26,396.85 C498.46,400.51 498.38,400.48 500.43,398.43 ZM 678.75 422.57 C669.94,419.43 664.12,412.07 661.88,401.20 C658.52,384.93 669.97,367.89 685.32,366.31 C694.74,365.33 702.66,367.48 708.69,372.62 C716.12,378.96 719.13,385.72 718.90,395.55 C718.61,407.96 712.71,417.59 702.39,422.49 C698.37,424.39 684.00,424.45 678.75,422.57 ZM 700.52 419.36 C705.54,416.98 712.94,409.91 713.03,407.40 C713.05,406.90 713.94,404.70 715.00,402.50 C717.49,397.34 717.47,395.79 714.81,388.21 C711.17,377.84 700.55,369.21 691.23,369.06 C685.67,368.96 676.91,372.67 672.54,376.97 C667.84,381.60 664.00,390.25 664.00,396.21 C664.00,401.65 669.28,412.21 673.67,415.56 C682.72,422.47 691.38,423.69 700.52,419.36 ZM 684.00 354.56 C684.00,346.78 685.31,345.54 689.06,349.75 C690.57,351.43 692.63,352.74 693.65,352.66 C695.06,352.54 695.58,353.30 695.82,355.88 C696.33,361.19 694.40,362.10 690.90,358.20 L 687.93 354.89 L 686.87 357.95 C685.16,362.86 684.00,361.49 684.00,354.56 ZM 388.34 261.43 C386.35,259.44 385.91,258.22 386.36,255.96 C386.68,254.37 387.22,250.01 387.57,246.28 C388.54,235.87 394.53,212.51 399.36,200.34 C406.84,181.50 416.05,164.87 427.00,150.45 C437.36,136.79 459.30,116.05 473.49,106.47 C482.11,100.67 497.13,91.86 500.58,90.60 C502.73,89.81 506.30,88.28 508.50,87.20 C515.08,83.96 531.56,78.07 537.21,76.93 C540.12,76.34 544.53,75.25 547.00,74.50 C557.64,71.29 566.66,70.50 592.00,70.58 L 617.50 70.66 L 633.86 74.29 C642.85,76.30 650.73,78.34 651.36,78.83 C651.99,79.32 653.85,80.04 655.50,80.42 C664.55,82.50 685.37,91.95 698.52,99.94 C714.59,109.70 741.31,133.52 752.06,147.66 C754.50,150.87 756.72,153.73 757.00,154.00 C760.05,157.04 769.78,173.37 776.11,186.07 C783.91,201.75 794.01,233.35 794.00,242.06 C794.00,244.78 790.76,249.00 788.68,249.00 C785.51,249.00 783.11,245.83 782.06,240.24 C779.93,228.91 777.67,219.40 775.71,213.50 C772.65,204.27 763.17,183.31 759.24,177.08 C746.76,157.28 740.86,149.85 726.50,135.91 C697.35,107.60 664.37,90.87 621.00,82.38 C608.05,79.84 577.08,79.84 562.00,82.38 C523.68,88.82 492.88,103.02 464.00,127.54 C450.98,138.60 437.05,154.15 429.50,166.04 C427.30,169.51 424.48,173.95 423.24,175.92 C410.28,196.41 400.36,226.61 397.47,254.30 C396.45,264.02 393.35,266.45 388.34,261.43 ZM 678.39 407.58 C677.68,405.73 684.03,392.12 686.62,389.90 C689.67,387.31 700.19,382.00 701.13,382.58 C702.48,383.42 702.24,384.31 698.47,392.37 C694.88,400.02 691.73,403.28 686.68,404.54 C685.20,404.92 683.74,405.62 683.43,406.11 C683.13,406.59 682.01,407.46 680.93,408.04 C679.42,408.85 678.84,408.74 678.39,407.58 ZM 688.83 398.15 C689.09,396.35 688.75,395.90 687.33,396.17 C686.31,396.37 685.35,397.56 685.17,398.85 C684.91,400.65 685.25,401.10 686.67,400.83 C687.69,400.63 688.65,399.44 688.83,398.15 ZM 694.61 393.39 C695.44,391.41 695.91,389.57 695.65,389.32 C695.14,388.81 689.00,391.77 689.00,392.53 C689.00,393.01 692.25,396.76 692.80,396.92 C692.97,396.96 693.78,395.38 694.61,393.39 ZM 688.10 376.20 C686.71,373.59 688.03,372.08 690.79,373.11 C692.73,373.83 692.92,374.29 692.01,375.98 C690.67,378.48 689.37,378.55 688.10,376.20 Z" fill="rgba(0,0,0,1)"/>
</g>
</svg>